<?xml version="1.0" encoding="UTF-8"?> <!-- Creator: CorelDRAW 2019 (64-Bit) --> <svg xmlns="http://www.w3.org/2000/svg" xmlns:xlink="http://www.w3.org/1999/xlink" xmlns:xodm="http://www.corel.com/coreldraw/odm/2003" xml:space="preserve" width="162.56mm" height="91.44mm" version="1.1" style="shape-rendering:geometricPrecision; text-rendering:geometricPrecision; image-rendering:optimizeQuality; fill-rule:evenodd; clip-rule:evenodd" viewBox="0 0 16256 9144"> <defs> <style type="text/css"> <![CDATA[ .fil0 {fill:#0DA8C7} .fil1 {fill:#727376;fill-rule:nonzero} ]]> </style> </defs> <g id="Capa_x0020_1"> <metadata id="CorelCorpID_0Corel-Layer"></metadata> <path class="fil0" d="M4471.17 981.85l-1446.28 0 -2305.22 5452.82 1578.14 0 386.95 -966.74 2087.87 0 394.45 966.74 1609.02 0 -2304.93 -5452.82zm-131.47 3318.13l0 0 -603.46 -1539.12 -610.76 1539.12 1214.22 0z"></path> <path class="fil0" d="M5700.1 6434.67l2057.58 0c1949.21,0 3085.94,-1160.21 3085.94,-2722.81l0 -15.39c0,-1562.35 -1121.39,-2676.04 -3054.86,-2676.04l-2088.66 0 0 5414.24zm2111.85 -1330.45l0 0c897.17,0 1492.89,-495.08 1492.89,-1369.03l0 -15.34c0,-866.29 -595.72,-1368.93 -1492.89,-1368.93l-611.36 0 0 2753.3 611.36 0z"></path> <path class="fil1" d="M1062.9 7278.37l107.25 0 462.39 1022.02 -123.24 0 -118.82 -268.22 -552.28 0 -120.29 268.22 -117.45 0 462.44 -1022.02zm282.63 650.91l0 0 -230.53 -517.54 -231.9 517.54 462.43 0z"></path> <path class="fil1" d="M1683.07 7875.65l0 -589.93 114.51 0 0 582.63c0,218.96 115.93,342.05 310.14,342.05 186.95,0 305.87,-112.99 305.87,-334.75l0 -589.93 114.51 0 0 581.16c0,295.72 -169.61,449.35 -423.23,449.35 -250.82,0 -421.8,-153.63 -421.8,-440.58z"></path> <polygon class="fil1" points="2933.77,7391.55 2593.14,7391.55 2593.14,7285.72 3390.32,7285.72 3390.32,7391.55 3049.7,7391.55 3049.7,8300.39 2933.77,8300.39 "></polygon> <path class="fil1" d="M3426.45 7795.9l0 -2.94c0,-279.75 210.14,-524.69 518.9,-524.69 308.72,0 516.02,242.1 516.02,521.8l0 2.89c0,279.84 -210.24,524.74 -518.91,524.74 -308.71,0 -516.01,-241.96 -516.01,-521.8zm916.05 0l0 0 0 -2.94c0,-230.53 -168.08,-418.86 -400.04,-418.86 -231.9,0 -397.19,185.53 -397.19,415.97l0 2.89c0,230.58 168.18,418.91 400.08,418.91 231.86,0 397.15,-185.54 397.15,-415.97z"></path> <path class="fil1" d="M4569.8 7285.72l436.3 0c124.71,0 224.7,37.64 288.53,101.42 49.26,49.26 78.23,120.34 78.23,200.09l0 2.74c0,168.28 -115.98,266.71 -275.39,295.78l311.61 414.64 -140.58 0 -294.21 -394.25 -289.99 0 0 394.25 -114.5 0 0 -1014.67zm426.21 517.38l0 0c152.2,0 260.87,-78.28 260.87,-208.71l0 -2.95c0,-124.6 -95.63,-199.89 -259.45,-199.89l-313.13 0 0 411.55 311.71 0z"></path> <polygon class="fil1" points="5494.37,7285.72 5608.98,7285.72 5608.98,8300.39 5494.37,8300.39 "></polygon> <path class="fil1" d="M5772.6 7285.72l352.29 0c318.87,0 539.15,218.82 539.15,504.35l0 2.89c0,285.53 -220.28,507.43 -539.15,507.43l-352.29 0 0 -1014.67zm352.29 908.84l0 0c256.56,0 420.33,-173.96 420.33,-398.66l0 -2.94c0,-224.7 -163.77,-401.41 -420.33,-401.41l-237.78 0 0 803.01 237.78 0z"></path> <path class="fil1" d="M7148.05 7278.37l107.2 0 462.44 1022.02 -123.24 0 -118.82 -268.22 -552.28 0 -120.29 268.22 -117.4 0 462.39 -1022.02zm282.59 650.91l0 0 -230.44 -517.54 -231.9 517.54 462.34 0z"></path> <path class="fil1" d="M7784.11 7285.72l352.24 0c318.86,0 539.2,218.82 539.2,504.35l0 2.89c0,285.53 -220.34,507.43 -539.2,507.43l-352.24 0 0 -1014.67zm352.24 908.84l0 0c256.61,0 420.33,-173.96 420.33,-398.66l0 -2.94c0,-224.7 -163.72,-401.41 -420.33,-401.41l-237.74 0 0 803.01 237.74 0z"></path> <path class="fil1" d="M9085.53 7285.72l352.15 0c318.86,0 539.2,218.82 539.2,504.35l0 2.89c0,285.53 -220.34,507.43 -539.2,507.43l-352.15 0 0 -1014.67zm352.15 908.84l0 0c256.51,0 420.33,-173.96 420.33,-398.66l0 -2.94c0,-224.7 -163.82,-401.41 -420.33,-401.41l-237.79 0 0 803.01 237.79 0z"></path> <polygon class="fil1" points="10085.36,7285.72 10818.86,7285.72 10818.86,7390.08 10199.91,7390.08 10199.91,7736.39 10753.62,7736.39 10753.62,7840.8 10199.91,7840.8 10199.91,8195.94 10826.12,8195.94 10826.12,8300.39 10085.36,8300.39 "></polygon> <polygon class="fil1" points="10923.03,7285.72 11037.53,7285.72 11037.53,8194.56 11608.64,8194.56 11608.64,8300.39 10923.03,8300.39 "></polygon> <path class="fil1" d="M12314.26 7278.37l205.87 0 434.84 1022.02 -233.28 0 -92.79 -227.59 -429.05 0 -92.79 227.59 -227.59 0 434.79 -1022.02zm234.89 597.28l0 0 -134.8 -329.06 -134.85 329.06 269.65 0z"></path> <path class="fil1" d="M12933.01 7795.9l0 -2.94c0,-288.42 224.75,-524.69 531.99,-524.69 182.69,0 292.79,49.26 398.62,139.11l-140.63 169.7c-78.24,-65.34 -147.79,-103.03 -265.19,-103.03 -162.35,0 -291.46,143.52 -291.46,316.02l0 2.89c0,185.58 127.59,321.9 307.39,321.9 81.22,0 153.67,-20.39 210.14,-61.03l0 -144.9 -224.65 0 0 -192.73 440.67 0 0 440.72c-104.41,88.38 -247.88,160.78 -433.42,160.78 -316.02,0 -533.46,-221.76 -533.46,-521.8z"></path> <path class="fil1" d="M13964.84 7865.41l0 -579.69 223.23 0 0 573.95c0,165.19 82.64,250.78 218.96,250.78 136.17,0 218.77,-82.65 218.77,-243.57l0 -581.16 223.28 0 0 572.43c0,307.39 -172.55,458.08 -444.99,458.08 -272.54,0 -439.25,-152.16 -439.25,-450.82z"></path> <path class="fil1" d="M15291.02 7278.37l205.83 0 434.84 1022.02 -233.37 0 -92.8 -227.59 -429 0 -92.79 227.59 -227.59 0 434.88 -1022.02zm234.75 597.28l0 0 -134.85 -329.06 -134.75 329.06 269.6 0z"></path> <path class="fil0" d="M14261.06 3960.48c131.27,0 195.58,-62.69 254.84,-181.66l-142.05 -336.12c-62.75,133.97 -126.81,205.39 -265.88,205.39 -174.11,0 -455.08,-188.52 -754.87,-188.52 -188.28,0 -304.21,63.72 -400.73,202.44l132.65 338.52c100.53,-159.65 219.89,-228.72 421.45,-228.72 299.5,0 580.52,188.67 754.59,188.67l0 0z"></path> <path class="fil0" d="M13106.19 2861.64c-183.23,0 -297.24,60.54 -392.58,191.47l126.81 323.47c101.41,-164.56 221.41,-235.09 425.91,-235.09 299.9,0 580.82,188.52 754.49,188.52 120.58,0 184.6,-53.62 240.04,-154.16l-137.05 -324.26c-61.47,129.61 -125.78,198.58 -262.69,198.58 -173.77,0 -455.08,-188.53 -754.93,-188.53l0 0z"></path> <path class="fil0" d="M13333.54 981.85l-1446.23 0 -2305.17 5452.82 1578.18 0 386.85 -966.74 2088.07 0 394.65 966.74 1608.62 0 -1010.9 -2391.45c-67.05,153.68 -130.09,235.39 -279.59,235.39 -173.97,0 -455.33,-188.53 -754.83,-188.53 -185.54,0 -300.24,61.96 -396.22,195.93l5.54 13.97 -1214.47 0 610.91 -1539.12 2.65 6.28c100,-155.59 218.96,-223.62 417.58,-223.62 299.8,0 581.26,188.37 755.08,188.37 117.99,0 181.86,-51.07 236.56,-147.79l-677.28 -1602.25z"></path> </g> </svg> 